<mxfile host="Electron" agent="Mozilla/5.0 (Windows NT 10.0; Win64; x64) AppleWebKit/537.36 (KHTML, like Gecko) draw.io/28.1.2 Chrome/138.0.7204.243 Electron/37.4.0 Safari/537.36" version="28.1.2">
  <diagram name="Página-1" id="lHWErlAnQZOICZ7VE-L2">
    <mxGraphModel dx="1019" dy="601" grid="1" gridSize="10" guides="1" tooltips="1" connect="1" arrows="1" fold="1" page="1" pageScale="1" pageWidth="827" pageHeight="1169" math="0" shadow="0">
      <root>
        <mxCell id="0" />
        <mxCell id="1" parent="0" />
        <mxCell id="0Zl922kC7-AtiW7XfdBJ-10" style="edgeStyle=orthogonalEdgeStyle;rounded=0;orthogonalLoop=1;jettySize=auto;html=1;exitX=0;exitY=0.25;exitDx=0;exitDy=0;entryX=0.5;entryY=1;entryDx=0;entryDy=0;" parent="1" source="0Zl922kC7-AtiW7XfdBJ-2" target="0Zl922kC7-AtiW7XfdBJ-4" edge="1">
          <mxGeometry relative="1" as="geometry" />
        </mxCell>
        <mxCell id="0Zl922kC7-AtiW7XfdBJ-11" style="edgeStyle=orthogonalEdgeStyle;rounded=0;orthogonalLoop=1;jettySize=auto;html=1;exitX=0.25;exitY=0;exitDx=0;exitDy=0;entryX=0.5;entryY=1;entryDx=0;entryDy=0;" parent="1" source="0Zl922kC7-AtiW7XfdBJ-2" target="0Zl922kC7-AtiW7XfdBJ-7" edge="1">
          <mxGeometry relative="1" as="geometry" />
        </mxCell>
        <mxCell id="0Zl922kC7-AtiW7XfdBJ-12" style="edgeStyle=orthogonalEdgeStyle;rounded=0;orthogonalLoop=1;jettySize=auto;html=1;exitX=0.75;exitY=0;exitDx=0;exitDy=0;entryX=0.5;entryY=1;entryDx=0;entryDy=0;" parent="1" source="0Zl922kC7-AtiW7XfdBJ-2" target="0Zl922kC7-AtiW7XfdBJ-5" edge="1">
          <mxGeometry relative="1" as="geometry" />
        </mxCell>
        <mxCell id="0Zl922kC7-AtiW7XfdBJ-13" style="edgeStyle=orthogonalEdgeStyle;rounded=0;orthogonalLoop=1;jettySize=auto;html=1;exitX=1;exitY=0;exitDx=0;exitDy=0;entryX=0.5;entryY=1;entryDx=0;entryDy=0;" parent="1" source="0Zl922kC7-AtiW7XfdBJ-2" target="0Zl922kC7-AtiW7XfdBJ-6" edge="1">
          <mxGeometry relative="1" as="geometry" />
        </mxCell>
        <mxCell id="0Zl922kC7-AtiW7XfdBJ-14" style="edgeStyle=orthogonalEdgeStyle;rounded=0;orthogonalLoop=1;jettySize=auto;html=1;exitX=1;exitY=0.25;exitDx=0;exitDy=0;entryX=0;entryY=0.5;entryDx=0;entryDy=0;" parent="1" source="0Zl922kC7-AtiW7XfdBJ-2" target="0Zl922kC7-AtiW7XfdBJ-8" edge="1">
          <mxGeometry relative="1" as="geometry" />
        </mxCell>
        <mxCell id="npdbWWH-SPO5HHlYwtPe-1" style="edgeStyle=orthogonalEdgeStyle;rounded=0;orthogonalLoop=1;jettySize=auto;html=1;exitX=1;exitY=0.5;exitDx=0;exitDy=0;" edge="1" parent="1" source="0Zl922kC7-AtiW7XfdBJ-2" target="npdbWWH-SPO5HHlYwtPe-2">
          <mxGeometry relative="1" as="geometry">
            <mxPoint x="476" y="540.344827586207" as="targetPoint" />
          </mxGeometry>
        </mxCell>
        <mxCell id="npdbWWH-SPO5HHlYwtPe-17" style="edgeStyle=orthogonalEdgeStyle;rounded=0;orthogonalLoop=1;jettySize=auto;html=1;exitX=0;exitY=0.5;exitDx=0;exitDy=0;" edge="1" parent="1" source="0Zl922kC7-AtiW7XfdBJ-2" target="npdbWWH-SPO5HHlYwtPe-18">
          <mxGeometry relative="1" as="geometry">
            <mxPoint x="106" y="539.8333333333335" as="targetPoint" />
          </mxGeometry>
        </mxCell>
        <mxCell id="npdbWWH-SPO5HHlYwtPe-27" style="edgeStyle=orthogonalEdgeStyle;rounded=0;orthogonalLoop=1;jettySize=auto;html=1;exitX=0.5;exitY=1;exitDx=0;exitDy=0;" edge="1" parent="1" source="0Zl922kC7-AtiW7XfdBJ-2" target="npdbWWH-SPO5HHlYwtPe-31">
          <mxGeometry relative="1" as="geometry">
            <mxPoint x="260.16666666666697" y="640" as="targetPoint" />
          </mxGeometry>
        </mxCell>
        <mxCell id="0Zl922kC7-AtiW7XfdBJ-2" value="Película" style="whiteSpace=wrap;html=1;align=center;" parent="1" vertex="1">
          <mxGeometry x="210" y="520" width="100" height="40" as="geometry" />
        </mxCell>
        <mxCell id="0Zl922kC7-AtiW7XfdBJ-4" value="Cod_pelicula" style="ellipse;whiteSpace=wrap;html=1;align=center;fontStyle=4;" parent="1" vertex="1">
          <mxGeometry x="120" y="470" width="100" height="40" as="geometry" />
        </mxCell>
        <mxCell id="0Zl922kC7-AtiW7XfdBJ-5" value="Nacionalidad" style="ellipse;whiteSpace=wrap;html=1;align=center;" parent="1" vertex="1">
          <mxGeometry x="240" y="420" width="70" height="40" as="geometry" />
        </mxCell>
        <mxCell id="0Zl922kC7-AtiW7XfdBJ-6" value="Productora" style="ellipse;whiteSpace=wrap;html=1;align=center;" parent="1" vertex="1">
          <mxGeometry x="290" y="460" width="60" height="40" as="geometry" />
        </mxCell>
        <mxCell id="0Zl922kC7-AtiW7XfdBJ-7" value="Titulo" style="ellipse;whiteSpace=wrap;html=1;align=center;" parent="1" vertex="1">
          <mxGeometry x="220" y="460" width="40" height="40" as="geometry" />
        </mxCell>
        <mxCell id="0Zl922kC7-AtiW7XfdBJ-8" value="Fecha" style="ellipse;whiteSpace=wrap;html=1;align=center;" parent="1" vertex="1">
          <mxGeometry x="380" y="480" width="40" height="40" as="geometry" />
        </mxCell>
        <mxCell id="npdbWWH-SPO5HHlYwtPe-4" value="" style="edgeStyle=orthogonalEdgeStyle;rounded=0;orthogonalLoop=1;jettySize=auto;html=1;" edge="1" parent="1" source="npdbWWH-SPO5HHlYwtPe-2" target="npdbWWH-SPO5HHlYwtPe-3">
          <mxGeometry relative="1" as="geometry" />
        </mxCell>
        <mxCell id="npdbWWH-SPO5HHlYwtPe-63" style="edgeStyle=orthogonalEdgeStyle;rounded=0;orthogonalLoop=1;jettySize=auto;html=1;exitX=1;exitY=0;exitDx=0;exitDy=0;" edge="1" parent="1" source="npdbWWH-SPO5HHlYwtPe-2">
          <mxGeometry relative="1" as="geometry">
            <mxPoint x="506.39130434782646" y="490" as="targetPoint" />
          </mxGeometry>
        </mxCell>
        <mxCell id="npdbWWH-SPO5HHlYwtPe-2" value="Participan" style="shape=rhombus;perimeter=rhombusPerimeter;whiteSpace=wrap;html=1;align=center;" vertex="1" parent="1">
          <mxGeometry x="416" y="510.344827586207" width="120" height="60" as="geometry" />
        </mxCell>
        <mxCell id="npdbWWH-SPO5HHlYwtPe-85" style="edgeStyle=orthogonalEdgeStyle;rounded=0;orthogonalLoop=1;jettySize=auto;html=1;exitX=0;exitY=0;exitDx=0;exitDy=0;entryX=0.5;entryY=0;entryDx=0;entryDy=0;" edge="1" parent="1" source="npdbWWH-SPO5HHlYwtPe-3" target="npdbWWH-SPO5HHlYwtPe-75">
          <mxGeometry relative="1" as="geometry">
            <Array as="points">
              <mxPoint x="546" y="300" />
              <mxPoint x="350" y="300" />
            </Array>
          </mxGeometry>
        </mxCell>
        <mxCell id="npdbWWH-SPO5HHlYwtPe-3" value="Actores" style="whiteSpace=wrap;html=1;" vertex="1" parent="1">
          <mxGeometry x="546" y="320.344827586207" width="120" height="60" as="geometry" />
        </mxCell>
        <mxCell id="npdbWWH-SPO5HHlYwtPe-5" value="(1:n)" style="text;html=1;align=center;verticalAlign=middle;resizable=0;points=[];autosize=1;strokeColor=none;fillColor=none;" vertex="1" parent="1">
          <mxGeometry x="300" y="548" width="50" height="30" as="geometry" />
        </mxCell>
        <mxCell id="npdbWWH-SPO5HHlYwtPe-6" value="(0:n)" style="text;html=1;align=center;verticalAlign=middle;resizable=0;points=[];autosize=1;strokeColor=none;fillColor=none;" vertex="1" parent="1">
          <mxGeometry x="496" y="358" width="50" height="30" as="geometry" />
        </mxCell>
        <mxCell id="npdbWWH-SPO5HHlYwtPe-7" value="N:M" style="text;html=1;align=center;verticalAlign=middle;resizable=0;points=[];autosize=1;strokeColor=none;fillColor=none;" vertex="1" parent="1">
          <mxGeometry x="451" y="565" width="50" height="30" as="geometry" />
        </mxCell>
        <mxCell id="npdbWWH-SPO5HHlYwtPe-72" style="edgeStyle=orthogonalEdgeStyle;rounded=0;orthogonalLoop=1;jettySize=auto;html=1;exitX=0.5;exitY=0;exitDx=0;exitDy=0;entryX=0.5;entryY=1;entryDx=0;entryDy=0;" edge="1" parent="1" source="npdbWWH-SPO5HHlYwtPe-18" target="npdbWWH-SPO5HHlYwtPe-19">
          <mxGeometry relative="1" as="geometry" />
        </mxCell>
        <mxCell id="npdbWWH-SPO5HHlYwtPe-18" value="Dirigida" style="shape=rhombus;perimeter=rhombusPerimeter;whiteSpace=wrap;html=1;align=center;" vertex="1" parent="1">
          <mxGeometry y="510.3433333333335" width="120" height="60" as="geometry" />
        </mxCell>
        <mxCell id="npdbWWH-SPO5HHlYwtPe-82" style="edgeStyle=orthogonalEdgeStyle;rounded=0;orthogonalLoop=1;jettySize=auto;html=1;exitX=1;exitY=0;exitDx=0;exitDy=0;entryX=0.5;entryY=1;entryDx=0;entryDy=0;" edge="1" parent="1" source="npdbWWH-SPO5HHlYwtPe-19" target="npdbWWH-SPO5HHlYwtPe-75">
          <mxGeometry relative="1" as="geometry">
            <Array as="points">
              <mxPoint x="120" y="300" />
              <mxPoint x="310" y="300" />
            </Array>
          </mxGeometry>
        </mxCell>
        <mxCell id="npdbWWH-SPO5HHlYwtPe-19" value="Director" style="whiteSpace=wrap;html=1;" vertex="1" parent="1">
          <mxGeometry y="320.3433333333335" width="120" height="60" as="geometry" />
        </mxCell>
        <mxCell id="npdbWWH-SPO5HHlYwtPe-28" value="(1:1)" style="text;html=1;align=center;verticalAlign=middle;resizable=0;points=[];autosize=1;strokeColor=none;fillColor=none;" vertex="1" parent="1">
          <mxGeometry x="74" y="380.34" width="50" height="30" as="geometry" />
        </mxCell>
        <mxCell id="npdbWWH-SPO5HHlYwtPe-29" value="(0:n)" style="text;html=1;align=center;verticalAlign=middle;resizable=0;points=[];autosize=1;strokeColor=none;fillColor=none;" vertex="1" parent="1">
          <mxGeometry x="161" y="548" width="50" height="30" as="geometry" />
        </mxCell>
        <mxCell id="npdbWWH-SPO5HHlYwtPe-30" value="1:N" style="text;html=1;align=center;verticalAlign=middle;resizable=0;points=[];autosize=1;strokeColor=none;fillColor=none;" vertex="1" parent="1">
          <mxGeometry x="46" y="578" width="40" height="30" as="geometry" />
        </mxCell>
        <mxCell id="npdbWWH-SPO5HHlYwtPe-33" value="" style="edgeStyle=orthogonalEdgeStyle;rounded=0;orthogonalLoop=1;jettySize=auto;html=1;" edge="1" parent="1" source="npdbWWH-SPO5HHlYwtPe-31" target="npdbWWH-SPO5HHlYwtPe-34">
          <mxGeometry relative="1" as="geometry">
            <mxPoint x="260.16666666666697" y="750" as="targetPoint" />
          </mxGeometry>
        </mxCell>
        <mxCell id="npdbWWH-SPO5HHlYwtPe-31" value="Pertenece" style="shape=rhombus;perimeter=rhombusPerimeter;whiteSpace=wrap;html=1;align=center;" vertex="1" parent="1">
          <mxGeometry x="200.16666666666697" y="610" width="120" height="60" as="geometry" />
        </mxCell>
        <mxCell id="npdbWWH-SPO5HHlYwtPe-37" style="edgeStyle=orthogonalEdgeStyle;rounded=0;orthogonalLoop=1;jettySize=auto;html=1;exitX=0;exitY=0.5;exitDx=0;exitDy=0;" edge="1" parent="1" source="npdbWWH-SPO5HHlYwtPe-34" target="npdbWWH-SPO5HHlYwtPe-36">
          <mxGeometry relative="1" as="geometry" />
        </mxCell>
        <mxCell id="npdbWWH-SPO5HHlYwtPe-38" style="edgeStyle=orthogonalEdgeStyle;rounded=0;orthogonalLoop=1;jettySize=auto;html=1;exitX=0.25;exitY=1;exitDx=0;exitDy=0;" edge="1" parent="1" source="npdbWWH-SPO5HHlYwtPe-34" target="npdbWWH-SPO5HHlYwtPe-35">
          <mxGeometry relative="1" as="geometry" />
        </mxCell>
        <mxCell id="npdbWWH-SPO5HHlYwtPe-40" value="" style="edgeStyle=orthogonalEdgeStyle;rounded=0;orthogonalLoop=1;jettySize=auto;html=1;" edge="1" parent="1" source="npdbWWH-SPO5HHlYwtPe-34" target="npdbWWH-SPO5HHlYwtPe-39">
          <mxGeometry relative="1" as="geometry" />
        </mxCell>
        <mxCell id="npdbWWH-SPO5HHlYwtPe-34" value="Ejemplar" style="shape=ext;margin=3;double=1;whiteSpace=wrap;html=1;align=center;" vertex="1" parent="1">
          <mxGeometry x="210.16666666666697" y="730" width="100" height="40" as="geometry" />
        </mxCell>
        <mxCell id="npdbWWH-SPO5HHlYwtPe-35" value="&lt;span style=&quot;border-bottom: 1px dotted&quot;&gt;NumEjemplar&lt;/span&gt;" style="ellipse;whiteSpace=wrap;html=1;align=center;" vertex="1" parent="1">
          <mxGeometry x="74" y="770" width="100" height="40" as="geometry" />
        </mxCell>
        <mxCell id="npdbWWH-SPO5HHlYwtPe-36" value="EstadoConservacion" style="ellipse;whiteSpace=wrap;html=1;align=center;" vertex="1" parent="1">
          <mxGeometry x="66" y="720" width="116" height="40" as="geometry" />
        </mxCell>
        <mxCell id="npdbWWH-SPO5HHlYwtPe-66" style="edgeStyle=orthogonalEdgeStyle;rounded=0;orthogonalLoop=1;jettySize=auto;html=1;exitX=1;exitY=0;exitDx=0;exitDy=0;" edge="1" parent="1" source="npdbWWH-SPO5HHlYwtPe-39">
          <mxGeometry relative="1" as="geometry">
            <mxPoint x="506.39130434782646" y="690" as="targetPoint" />
          </mxGeometry>
        </mxCell>
        <mxCell id="npdbWWH-SPO5HHlYwtPe-67" style="edgeStyle=orthogonalEdgeStyle;rounded=0;orthogonalLoop=1;jettySize=auto;html=1;exitX=0;exitY=0;exitDx=0;exitDy=0;" edge="1" parent="1" source="npdbWWH-SPO5HHlYwtPe-39">
          <mxGeometry relative="1" as="geometry">
            <mxPoint x="446.39130434782646" y="690" as="targetPoint" />
          </mxGeometry>
        </mxCell>
        <mxCell id="npdbWWH-SPO5HHlYwtPe-110" style="edgeStyle=orthogonalEdgeStyle;rounded=0;orthogonalLoop=1;jettySize=auto;html=1;exitX=1;exitY=0.5;exitDx=0;exitDy=0;entryX=0;entryY=0.5;entryDx=0;entryDy=0;" edge="1" parent="1" source="npdbWWH-SPO5HHlYwtPe-39" target="npdbWWH-SPO5HHlYwtPe-41">
          <mxGeometry relative="1" as="geometry" />
        </mxCell>
        <mxCell id="npdbWWH-SPO5HHlYwtPe-39" value="Alquila" style="shape=rhombus;perimeter=rhombusPerimeter;whiteSpace=wrap;html=1;align=center;" vertex="1" parent="1">
          <mxGeometry x="416" y="720" width="120" height="60" as="geometry" />
        </mxCell>
        <mxCell id="npdbWWH-SPO5HHlYwtPe-55" value="" style="edgeStyle=orthogonalEdgeStyle;rounded=0;orthogonalLoop=1;jettySize=auto;html=1;" edge="1" parent="1" source="npdbWWH-SPO5HHlYwtPe-41" target="npdbWWH-SPO5HHlYwtPe-54">
          <mxGeometry relative="1" as="geometry" />
        </mxCell>
        <mxCell id="npdbWWH-SPO5HHlYwtPe-41" value="Socio" style="whiteSpace=wrap;html=1;" vertex="1" parent="1">
          <mxGeometry x="640" y="545" width="120" height="60" as="geometry" />
        </mxCell>
        <mxCell id="npdbWWH-SPO5HHlYwtPe-56" style="edgeStyle=orthogonalEdgeStyle;rounded=0;orthogonalLoop=1;jettySize=auto;html=1;exitX=1;exitY=0.5;exitDx=0;exitDy=0;entryX=1;entryY=0.5;entryDx=0;entryDy=0;" edge="1" parent="1" source="npdbWWH-SPO5HHlYwtPe-54" target="npdbWWH-SPO5HHlYwtPe-41">
          <mxGeometry relative="1" as="geometry">
            <Array as="points">
              <mxPoint x="800" y="705" />
              <mxPoint x="800" y="575" />
            </Array>
          </mxGeometry>
        </mxCell>
        <mxCell id="npdbWWH-SPO5HHlYwtPe-54" value="Abalar" style="shape=rhombus;perimeter=rhombusPerimeter;whiteSpace=wrap;html=1;align=center;" vertex="1" parent="1">
          <mxGeometry x="640" y="675" width="120" height="60" as="geometry" />
        </mxCell>
        <mxCell id="npdbWWH-SPO5HHlYwtPe-57" value="(0:1)" style="text;html=1;align=center;verticalAlign=middle;resizable=0;points=[];autosize=1;strokeColor=none;fillColor=none;" vertex="1" parent="1">
          <mxGeometry x="630" y="600" width="50" height="30" as="geometry" />
        </mxCell>
        <mxCell id="npdbWWH-SPO5HHlYwtPe-59" value="1:N" style="text;html=1;align=center;verticalAlign=middle;resizable=0;points=[];autosize=1;strokeColor=none;fillColor=none;" vertex="1" parent="1">
          <mxGeometry x="600" y="690" width="40" height="30" as="geometry" />
        </mxCell>
        <mxCell id="npdbWWH-SPO5HHlYwtPe-60" value="(1:n)" style="text;html=1;align=center;verticalAlign=middle;resizable=0;points=[];autosize=1;strokeColor=none;fillColor=none;" vertex="1" parent="1">
          <mxGeometry x="250" y="580" width="50" height="30" as="geometry" />
        </mxCell>
        <mxCell id="npdbWWH-SPO5HHlYwtPe-61" value="(1:1)" style="text;html=1;align=center;verticalAlign=middle;resizable=0;points=[];autosize=1;strokeColor=none;fillColor=none;" vertex="1" parent="1">
          <mxGeometry x="260.17" y="690" width="50" height="30" as="geometry" />
        </mxCell>
        <mxCell id="npdbWWH-SPO5HHlYwtPe-62" value="1:N" style="text;html=1;align=center;verticalAlign=middle;resizable=0;points=[];autosize=1;strokeColor=none;fillColor=none;" vertex="1" parent="1">
          <mxGeometry x="320.17" y="625" width="40" height="30" as="geometry" />
        </mxCell>
        <mxCell id="npdbWWH-SPO5HHlYwtPe-69" value="Principal" style="text;html=1;align=center;verticalAlign=middle;resizable=0;points=[];autosize=1;strokeColor=none;fillColor=none;" vertex="1" parent="1">
          <mxGeometry x="466" y="460" width="70" height="30" as="geometry" />
        </mxCell>
        <mxCell id="npdbWWH-SPO5HHlYwtPe-70" value="Fecha_final" style="text;html=1;align=center;verticalAlign=middle;resizable=0;points=[];autosize=1;strokeColor=none;fillColor=none;" vertex="1" parent="1">
          <mxGeometry x="461" y="658" width="90" height="30" as="geometry" />
        </mxCell>
        <mxCell id="npdbWWH-SPO5HHlYwtPe-71" value="Fecha_inicio" style="text;html=1;align=center;verticalAlign=middle;resizable=0;points=[];autosize=1;strokeColor=none;fillColor=none;" vertex="1" parent="1">
          <mxGeometry x="380" y="660" width="90" height="30" as="geometry" />
        </mxCell>
        <mxCell id="npdbWWH-SPO5HHlYwtPe-79" value="" style="edgeStyle=orthogonalEdgeStyle;rounded=0;orthogonalLoop=1;jettySize=auto;html=1;" edge="1" parent="1" source="npdbWWH-SPO5HHlYwtPe-75" target="npdbWWH-SPO5HHlYwtPe-78">
          <mxGeometry relative="1" as="geometry" />
        </mxCell>
        <mxCell id="npdbWWH-SPO5HHlYwtPe-90" style="edgeStyle=orthogonalEdgeStyle;rounded=0;orthogonalLoop=1;jettySize=auto;html=1;exitX=0;exitY=0.25;exitDx=0;exitDy=0;" edge="1" parent="1" source="npdbWWH-SPO5HHlYwtPe-75">
          <mxGeometry relative="1" as="geometry">
            <mxPoint x="426.0000000000002" y="170" as="targetPoint" />
          </mxGeometry>
        </mxCell>
        <mxCell id="npdbWWH-SPO5HHlYwtPe-75" value="Es un" style="triangle;whiteSpace=wrap;html=1;rotation=90;" vertex="1" parent="1">
          <mxGeometry x="300.17" y="150" width="60" height="80" as="geometry" />
        </mxCell>
        <mxCell id="npdbWWH-SPO5HHlYwtPe-86" style="edgeStyle=orthogonalEdgeStyle;rounded=0;orthogonalLoop=1;jettySize=auto;html=1;exitX=1;exitY=0.5;exitDx=0;exitDy=0;entryX=0.5;entryY=0;entryDx=0;entryDy=0;" edge="1" parent="1" source="npdbWWH-SPO5HHlYwtPe-78" target="npdbWWH-SPO5HHlYwtPe-83">
          <mxGeometry relative="1" as="geometry" />
        </mxCell>
        <mxCell id="npdbWWH-SPO5HHlYwtPe-87" style="edgeStyle=orthogonalEdgeStyle;rounded=0;orthogonalLoop=1;jettySize=auto;html=1;exitX=0;exitY=0.5;exitDx=0;exitDy=0;entryX=0.5;entryY=0;entryDx=0;entryDy=0;" edge="1" parent="1" source="npdbWWH-SPO5HHlYwtPe-78" target="npdbWWH-SPO5HHlYwtPe-80">
          <mxGeometry relative="1" as="geometry" />
        </mxCell>
        <mxCell id="npdbWWH-SPO5HHlYwtPe-88" style="edgeStyle=orthogonalEdgeStyle;rounded=0;orthogonalLoop=1;jettySize=auto;html=1;exitX=0;exitY=0.25;exitDx=0;exitDy=0;" edge="1" parent="1" source="npdbWWH-SPO5HHlYwtPe-78" target="npdbWWH-SPO5HHlYwtPe-81">
          <mxGeometry relative="1" as="geometry" />
        </mxCell>
        <mxCell id="npdbWWH-SPO5HHlYwtPe-99" style="edgeStyle=orthogonalEdgeStyle;rounded=0;orthogonalLoop=1;jettySize=auto;html=1;exitX=1;exitY=0.25;exitDx=0;exitDy=0;entryX=0.5;entryY=0;entryDx=0;entryDy=0;" edge="1" parent="1" source="npdbWWH-SPO5HHlYwtPe-78" target="npdbWWH-SPO5HHlYwtPe-98">
          <mxGeometry relative="1" as="geometry" />
        </mxCell>
        <mxCell id="npdbWWH-SPO5HHlYwtPe-106" style="edgeStyle=orthogonalEdgeStyle;rounded=0;orthogonalLoop=1;jettySize=auto;html=1;exitX=0;exitY=0.75;exitDx=0;exitDy=0;entryX=0.5;entryY=0;entryDx=0;entryDy=0;" edge="1" parent="1" source="npdbWWH-SPO5HHlYwtPe-78" target="npdbWWH-SPO5HHlYwtPe-105">
          <mxGeometry relative="1" as="geometry" />
        </mxCell>
        <mxCell id="npdbWWH-SPO5HHlYwtPe-115" style="edgeStyle=orthogonalEdgeStyle;rounded=0;orthogonalLoop=1;jettySize=auto;html=1;exitX=1;exitY=0.25;exitDx=0;exitDy=0;entryX=0;entryY=0.5;entryDx=0;entryDy=0;" edge="1" parent="1" source="npdbWWH-SPO5HHlYwtPe-78" target="npdbWWH-SPO5HHlYwtPe-102">
          <mxGeometry relative="1" as="geometry">
            <Array as="points">
              <mxPoint x="520" y="25" />
              <mxPoint x="520" y="40" />
            </Array>
          </mxGeometry>
        </mxCell>
        <mxCell id="npdbWWH-SPO5HHlYwtPe-78" value="Persona" style="whiteSpace=wrap;html=1;" vertex="1" parent="1">
          <mxGeometry x="270.17" y="10" width="120" height="60" as="geometry" />
        </mxCell>
        <mxCell id="npdbWWH-SPO5HHlYwtPe-80" value="Nombre" style="ellipse;whiteSpace=wrap;html=1;align=center;" vertex="1" parent="1">
          <mxGeometry x="190" y="80" width="60" height="40" as="geometry" />
        </mxCell>
        <mxCell id="npdbWWH-SPO5HHlYwtPe-81" value="Nacionalidad" style="ellipse;whiteSpace=wrap;html=1;align=center;" vertex="1" parent="1">
          <mxGeometry x="54" y="20" width="70" height="40" as="geometry" />
        </mxCell>
        <mxCell id="npdbWWH-SPO5HHlYwtPe-83" value="DNI" style="ellipse;whiteSpace=wrap;html=1;align=center;fontStyle=4;" vertex="1" parent="1">
          <mxGeometry x="406" y="80" width="70" height="40" as="geometry" />
        </mxCell>
        <mxCell id="npdbWWH-SPO5HHlYwtPe-91" value="" style="ellipse;whiteSpace=wrap;html=1;aspect=fixed;" vertex="1" parent="1">
          <mxGeometry x="426" y="160" width="20" height="20" as="geometry" />
        </mxCell>
        <mxCell id="npdbWWH-SPO5HHlYwtPe-92" value="Tipo" style="text;html=1;align=center;verticalAlign=middle;resizable=0;points=[];autosize=1;strokeColor=none;fillColor=none;" vertex="1" parent="1">
          <mxGeometry x="441" y="155" width="50" height="30" as="geometry" />
        </mxCell>
        <mxCell id="npdbWWH-SPO5HHlYwtPe-94" value="(1:n)" style="text;html=1;align=center;verticalAlign=middle;resizable=0;points=[];autosize=1;strokeColor=none;fillColor=none;" vertex="1" parent="1">
          <mxGeometry x="590" y="550" width="50" height="30" as="geometry" />
        </mxCell>
        <mxCell id="npdbWWH-SPO5HHlYwtPe-95" value="(0:n)" style="text;html=1;align=center;verticalAlign=middle;resizable=0;points=[];autosize=1;strokeColor=none;fillColor=none;" vertex="1" parent="1">
          <mxGeometry x="310" y="720" width="50" height="30" as="geometry" />
        </mxCell>
        <mxCell id="npdbWWH-SPO5HHlYwtPe-96" value="1:N" style="text;html=1;align=center;verticalAlign=middle;resizable=0;points=[];autosize=1;strokeColor=none;fillColor=none;" vertex="1" parent="1">
          <mxGeometry x="456" y="780" width="40" height="30" as="geometry" />
        </mxCell>
        <mxCell id="npdbWWH-SPO5HHlYwtPe-98" value="Sexo" style="ellipse;whiteSpace=wrap;html=1;align=center;" vertex="1" parent="1">
          <mxGeometry x="476" y="49.99999999999999" width="60" height="40" as="geometry" />
        </mxCell>
        <mxCell id="npdbWWH-SPO5HHlYwtPe-102" value="Teléfono" style="ellipse;whiteSpace=wrap;html=1;align=center;fontStyle=0" vertex="1" parent="1">
          <mxGeometry x="551" y="20" width="60" height="40" as="geometry" />
        </mxCell>
        <mxCell id="npdbWWH-SPO5HHlYwtPe-105" value="Dirección" style="ellipse;whiteSpace=wrap;html=1;align=center;fontStyle=0" vertex="1" parent="1">
          <mxGeometry x="140.17000000000002" y="130" width="60" height="40" as="geometry" />
        </mxCell>
        <mxCell id="npdbWWH-SPO5HHlYwtPe-108" style="edgeStyle=orthogonalEdgeStyle;rounded=0;orthogonalLoop=1;jettySize=auto;html=1;exitX=0.5;exitY=0;exitDx=0;exitDy=0;entryX=0.558;entryY=0.001;entryDx=0;entryDy=0;entryPerimeter=0;" edge="1" parent="1" source="npdbWWH-SPO5HHlYwtPe-75" target="npdbWWH-SPO5HHlYwtPe-41">
          <mxGeometry relative="1" as="geometry">
            <Array as="points">
              <mxPoint x="350" y="260" />
              <mxPoint x="707" y="260" />
            </Array>
          </mxGeometry>
        </mxCell>
        <mxCell id="npdbWWH-SPO5HHlYwtPe-111" value="0:1" style="text;html=1;align=center;verticalAlign=middle;resizable=0;points=[];autosize=1;strokeColor=none;fillColor=none;" vertex="1" parent="1">
          <mxGeometry x="635" y="230" width="40" height="30" as="geometry" />
        </mxCell>
        <mxCell id="npdbWWH-SPO5HHlYwtPe-112" value="0:1" style="text;html=1;align=center;verticalAlign=middle;resizable=0;points=[];autosize=1;strokeColor=none;fillColor=none;" vertex="1" parent="1">
          <mxGeometry x="150.17000000000002" y="270" width="40" height="30" as="geometry" />
        </mxCell>
        <mxCell id="npdbWWH-SPO5HHlYwtPe-113" value="0:1" style="text;html=1;align=center;verticalAlign=middle;resizable=0;points=[];autosize=1;strokeColor=none;fillColor=none;" vertex="1" parent="1">
          <mxGeometry x="590" y="290.34000000000003" width="40" height="30" as="geometry" />
        </mxCell>
        <mxCell id="npdbWWH-SPO5HHlYwtPe-114" value="1:1" style="text;html=1;align=center;verticalAlign=middle;resizable=0;points=[];autosize=1;strokeColor=none;fillColor=none;" vertex="1" parent="1">
          <mxGeometry x="330" y="100" width="40" height="30" as="geometry" />
        </mxCell>
      </root>
    </mxGraphModel>
  </diagram>
</mxfile>
